<?xml version="1.0" encoding="utf-8"?>
<svg width="909" height="800" viewBox="0 0 909 800" xmlns="http://www.w3.org/2000/svg">
<rect id="frame" x="0" y="0" width="909" height="800" fill="#fff" stroke="none" stroke-width="0"/>

<!-- Association write -->
<g class="page_0_VBgUPXxb diagram_page" visibility="visible">
	<line x1="387" y1="51" x2="501" y2="51" stroke="#878787" stroke-width="2"/>
	<text x="438" y="68" fill="#b2182b" font-family="Verdana" font-size="12">0,N</text>
	<line x1="628" y1="51" x2="501" y2="51" stroke="#878787" stroke-width="2"/>
	<text x="546" y="68" fill="#b2182b" font-family="Verdana" font-size="12">1,1</text>
	<g>
		<path d="M510 26 a14 14 90 0 1 14 14 V51 h-46 V40 a14 14 90 0 1 14 -14" fill="#bababa" stroke="#bababa" stroke-width="0"/>
		<path d="M524 51 v11 a14 14 90 0 1 -14 14 H492 a14 14 90 0 1 -14 -14 V51 H46" fill="#e0e0e0" stroke="#e0e0e0" stroke-width="0"/>
		<rect x="478" y="26" width="46" height="50" fill="none" rx="14" stroke="#878787" stroke-width="2"/>
		<line x1="478" y1="51" x2="524" y2="51" stroke="#878787" stroke-width="1"/>
		<text x="486" y="43.75" fill="#000" font-family="Verdana" font-size="12">write</text>
	</g>
</g>

<!-- Association Have -->
<g class="page_0_VBgUPXxb diagram_page" visibility="visible">
	<line x1="855" y1="51" x2="755" y2="51" stroke="#878787" stroke-width="2"/>
	<text x="783" y="68" fill="#b2182b" font-family="Verdana" font-size="12">1,N</text>
	<line x1="628" y1="51" x2="755" y2="51" stroke="#878787" stroke-width="2"/>
	<text x="689" y="68" fill="#b2182b" font-family="Verdana" font-size="12">1,1</text>
	<g>
		<path d="M764 26 a14 14 90 0 1 14 14 V51 h-46 V40 a14 14 90 0 1 14 -14" fill="#bababa" stroke="#bababa" stroke-width="0"/>
		<path d="M778 51 v11 a14 14 90 0 1 -14 14 H746 a14 14 90 0 1 -14 -14 V51 H46" fill="#e0e0e0" stroke="#e0e0e0" stroke-width="0"/>
		<rect x="732" y="26" width="46" height="50" fill="none" rx="14" stroke="#878787" stroke-width="2"/>
		<line x1="732" y1="51" x2="778" y2="51" stroke="#878787" stroke-width="1"/>
		<text x="739" y="43.75" fill="#000" font-family="Verdana" font-size="12">Have</text>
	</g>
</g>

<!-- Association propose -->
<g class="page_0_VBgUPXxb diagram_page" visibility="visible">
	<line x1="387" y1="287" x2="501" y2="152" stroke="#878787" stroke-width="2"/>
	<text x="409.3" y="228" fill="#b2182b" font-family="Verdana" font-size="12">0,N</text>
	<line x1="628" y1="287" x2="501" y2="152" stroke="#878787" stroke-width="2"/>
	<text x="578.26" y="228" fill="#b2182b" font-family="Verdana" font-size="12">0,1</text>
	<g>
		<path d="M519 127 a14 14 90 0 1 14 14 V152 h-64 V141 a14 14 90 0 1 14 -14" fill="#bababa" stroke="#bababa" stroke-width="0"/>
		<path d="M533 152 v11 a14 14 90 0 1 -14 14 H483 a14 14 90 0 1 -14 -14 V152 H64" fill="#e0e0e0" stroke="#e0e0e0" stroke-width="0"/>
		<rect x="469" y="127" width="64" height="50" fill="none" rx="14" stroke="#878787" stroke-width="2"/>
		<line x1="469" y1="152" x2="533" y2="152" stroke="#878787" stroke-width="1"/>
		<text x="477" y="144.75" fill="#000" font-family="Verdana" font-size="12">propose</text>
	</g>
</g>

<!-- Association belong to -->
<g class="page_0_VBgUPXxb diagram_page" visibility="visible">
	<line x1="628" y1="51" x2="628" y2="152" stroke="#878787" stroke-width="2"/>
	<text x="633" y="110" fill="#b2182b" font-family="Verdana" font-size="12">1,N</text>
	<line x1="628" y1="287" x2="628" y2="152" stroke="#878787" stroke-width="2"/>
	<text x="633" y="228" fill="#b2182b" font-family="Verdana" font-size="12">1,1</text>
	<g>
		<path d="M650 127 a14 14 90 0 1 14 14 V152 h-72 V141 a14 14 90 0 1 14 -14" fill="#bababa" stroke="#bababa" stroke-width="0"/>
		<path d="M664 152 v11 a14 14 90 0 1 -14 14 H606 a14 14 90 0 1 -14 -14 V152 H72" fill="#e0e0e0" stroke="#e0e0e0" stroke-width="0"/>
		<rect x="592" y="127" width="72" height="50" fill="none" rx="14" stroke="#878787" stroke-width="2"/>
		<line x1="592" y1="152" x2="664" y2="152" stroke="#878787" stroke-width="1"/>
		<text x="599" y="144.75" fill="#000" font-family="Verdana" font-size="12">belong to</text>
	</g>
</g>

<!-- Association Contain -->
<g class="page_0_VBgUPXxb diagram_page" visibility="visible">
	<line x1="185" y1="287" x2="81" y2="287" stroke="#878787" stroke-width="2"/>
	<text x="119" y="304" fill="#b2182b" font-family="Verdana" font-size="12">1,N</text>
	<line x1="81" y1="152" x2="81" y2="287" stroke="#878787" stroke-width="2"/>
	<text x="86" y="245" fill="#b2182b" font-family="Verdana" font-size="12">1,1</text>
	<g>
		<path d="M98 262 a14 14 90 0 1 14 14 V287 h-62 V276 a14 14 90 0 1 14 -14" fill="#bababa" stroke="#bababa" stroke-width="0"/>
		<path d="M112 287 v11 a14 14 90 0 1 -14 14 H64 a14 14 90 0 1 -14 -14 V287 H62" fill="#e0e0e0" stroke="#e0e0e0" stroke-width="0"/>
		<rect x="50" y="262" width="62" height="50" fill="none" rx="14" stroke="#878787" stroke-width="2"/>
		<line x1="50" y1="287" x2="112" y2="287" stroke="#878787" stroke-width="1"/>
		<text x="58" y="279.75" fill="#000" font-family="Verdana" font-size="12">Contain</text>
	</g>
</g>

<!-- Association Play -->
<g class="page_0_VBgUPXxb diagram_page" visibility="visible">
	<line x1="185" y1="287" x2="280" y2="287" stroke="#878787" stroke-width="2"/>
	<text x="229" y="304" fill="#b2182b" font-family="Verdana" font-size="12">0,N</text>
	<line x1="387" y1="287" x2="280" y2="287" stroke="#878787" stroke-width="2"/>
	<text x="309" y="304" fill="#b2182b" font-family="Verdana" font-size="12">0,N</text>
	<g>
		<path d="M290 262 a14 14 90 0 1 14 14 V287 h-48 V276 a14 14 90 0 1 14 -14" fill="#bababa" stroke="#bababa" stroke-width="0"/>
		<path d="M304 287 v11 a14 14 90 0 1 -14 14 H270 a14 14 90 0 1 -14 -14 V287 H48" fill="#e0e0e0" stroke="#e0e0e0" stroke-width="0"/>
		<rect x="256" y="262" width="48" height="50" fill="none" rx="14" stroke="#878787" stroke-width="2"/>
		<line x1="256" y1="287" x2="304" y2="287" stroke="#878787" stroke-width="1"/>
		<text x="267" y="279.75" fill="#000" font-family="Verdana" font-size="12">Play</text>
		<text x="263" y="304.8" fill="#000" font-family="Verdana" font-size="12">score</text>
	</g>
</g>

<!-- Association favorite -->
<g class="page_0_VBgUPXxb diagram_page" visibility="visible">
	<line x1="387" y1="287" x2="501" y2="287" stroke="#878787" stroke-width="2"/>
	<text x="443" y="304" fill="#b2182b" font-family="Verdana" font-size="12">0,N</text>
	<line x1="628" y1="287" x2="501" y2="287" stroke="#878787" stroke-width="2"/>
	<text x="547" y="304" fill="#b2182b" font-family="Verdana" font-size="12">0,N</text>
	<g>
		<path d="M518 262 a14 14 90 0 1 14 14 V287 h-62 V276 a14 14 90 0 1 14 -14" fill="#bababa" stroke="#bababa" stroke-width="0"/>
		<path d="M532 287 v11 a14 14 90 0 1 -14 14 H484 a14 14 90 0 1 -14 -14 V287 H62" fill="#e0e0e0" stroke="#e0e0e0" stroke-width="0"/>
		<rect x="470" y="262" width="62" height="50" fill="none" rx="14" stroke="#878787" stroke-width="2"/>
		<line x1="470" y1="287" x2="532" y2="287" stroke="#878787" stroke-width="1"/>
		<text x="478" y="279.75" fill="#000" font-family="Verdana" font-size="12">favorite</text>
	</g>
</g>

<!-- Association choice -->
<g class="page_0_VBgUPXxb diagram_page" visibility="visible">
	<line x1="387" y1="287" x2="387" y2="405" stroke="#878787" stroke-width="2"/>
	<text x="361" y="355" fill="#b2182b" font-family="Verdana" font-size="12">0,1</text>
	<line x1="280" y1="405" x2="387" y2="405" stroke="#878787" stroke-width="2"/>
	<text x="331" y="422" fill="#b2182b" font-family="Verdana" font-size="12">1,1</text>
	<g>
		<path d="M400 380 a14 14 90 0 1 14 14 V405 h-54 V394 a14 14 90 0 1 14 -14" fill="#bababa" stroke="#bababa" stroke-width="0"/>
		<path d="M414 405 v11 a14 14 90 0 1 -14 14 H374 a14 14 90 0 1 -14 -14 V405 H54" fill="#e0e0e0" stroke="#e0e0e0" stroke-width="0"/>
		<rect x="360" y="380" width="54" height="50" fill="none" rx="14" stroke="#878787" stroke-width="2"/>
		<line x1="360" y1="405" x2="414" y2="405" stroke="#878787" stroke-width="1"/>
		<text x="368" y="397.75" fill="#000" font-family="Verdana" font-size="12">choice</text>
	</g>
</g>

<!-- Association rate -->
<g class="page_0_VBgUPXxb diagram_page" visibility="visible">
	<line x1="387" y1="287" x2="501" y2="405" stroke="#878787" stroke-width="2"/>
	<text x="416.17" y="355" fill="#b2182b" font-family="Verdana" font-size="12">0,N</text>
	<line x1="628" y1="287" x2="501" y2="405" stroke="#878787" stroke-width="2"/>
	<text x="547" y="335.88" fill="#b2182b" font-family="Verdana" font-size="12">0,N</text>
	<g>
		<path d="M507 380 a14 14 90 0 1 14 14 V405 h-40 V394 a14 14 90 0 1 14 -14" fill="#bababa" stroke="#bababa" stroke-width="0"/>
		<path d="M521 405 v11 a14 14 90 0 1 -14 14 H495 a14 14 90 0 1 -14 -14 V405 H40" fill="#e0e0e0" stroke="#e0e0e0" stroke-width="0"/>
		<rect x="481" y="380" width="40" height="50" fill="none" rx="14" stroke="#878787" stroke-width="2"/>
		<line x1="481" y1="405" x2="521" y2="405" stroke="#878787" stroke-width="1"/>
		<text x="489" y="397.75" fill="#000" font-family="Verdana" font-size="12">rate</text>
	</g>
</g>

<!-- Association say -->
<g class="page_0_VBgUPXxb diagram_page" visibility="visible">
	<line x1="628" y1="287" x2="628" y2="405" stroke="#878787" stroke-width="2"/>
	<text x="633" y="355" fill="#b2182b" font-family="Verdana" font-size="12">1,1</text>
	<line x1="628" y1="514" x2="628" y2="405" stroke="#878787" stroke-width="2"/>
	<text x="633" y="447" fill="#b2182b" font-family="Verdana" font-size="12">1,N</text>
	<g>
		<path d="M632 380 a14 14 90 0 1 14 14 V405 h-36 V394 a14 14 90 0 1 14 -14" fill="#bababa" stroke="#bababa" stroke-width="0"/>
		<path d="M646 405 v11 a14 14 90 0 1 -14 14 H624 a14 14 90 0 1 -14 -14 V405 H36" fill="#e0e0e0" stroke="#e0e0e0" stroke-width="0"/>
		<rect x="610" y="380" width="36" height="50" fill="none" rx="14" stroke="#878787" stroke-width="2"/>
		<line x1="610" y1="405" x2="646" y2="405" stroke="#878787" stroke-width="1"/>
		<text x="617" y="397.75" fill="#000" font-family="Verdana" font-size="12">say</text>
	</g>
</g>

<!-- Association be -->
<g class="page_0_VBgUPXxb diagram_page" visibility="visible">
	<line x1="628" y1="732" x2="628" y2="623" stroke="#878787" stroke-width="2"/>
	<text x="633" y="665" fill="#b2182b" font-family="Verdana" font-size="12">1,1</text>
	<line x1="628" y1="514" x2="628" y2="623" stroke="#878787" stroke-width="2"/>
	<text x="633" y="590" fill="#b2182b" font-family="Verdana" font-size="12">1,1</text>
	<g>
		<path d="M629 598 a14 14 90 0 1 14 14 V623 h-30 V612 a14 14 90 0 1 14 -14" fill="#bababa" stroke="#bababa" stroke-width="0"/>
		<path d="M643 623 v11 a14 14 90 0 1 -14 14 H627 a14 14 90 0 1 -14 -14 V623 H30" fill="#e0e0e0" stroke="#e0e0e0" stroke-width="0"/>
		<rect x="613" y="598" width="30" height="50" fill="none" rx="14" stroke="#878787" stroke-width="2"/>
		<line x1="613" y1="623" x2="643" y2="623" stroke="#878787" stroke-width="1"/>
		<text x="620" y="615.75" fill="#000" font-family="Verdana" font-size="12">be</text>
	</g>
</g>

<!-- Entity Author -->
<g class="page_0_VBgUPXxb diagram_page" visibility="visible">
	<g>
		<rect x="341" y="17" width="92" height="25" fill="#f4a582" stroke="#f4a582" stroke-width="0" opacity="1"/>
		<rect x="341" y="42" width="92" height="43" fill="#fddbc7" stroke="#fddbc7" stroke-width="0" opacity="1"/>
		<rect x="341" y="17" width="92" height="68" fill="none" stroke="#d6604d" stroke-width="2" opacity="1"/>
		<line x1="341" y1="42" x2="433" y2="42" stroke="#d6604d" stroke-width="1"/>
	</g>
	<text x="367" y="34.75" fill="#000" font-family="Verdana" font-size="12">Author</text>
	<text x="346" y="59.8" fill="#000" font-family="Verdana" font-size="12">code_author</text>
	<line x1="346" y1="62" x2="422" y2="62" stroke="#000" stroke-width="1"/>
	<text x="346" y="76.8" fill="#000" font-family="Verdana" font-size="12">name_author</text>
</g>

<!-- Entity Episode -->
<g class="page_0_VBgUPXxb diagram_page" visibility="visible">
	<g>
		<rect x="572" y="9" width="112" height="25" fill="#f4a582" stroke="#f4a582" stroke-width="0" opacity="1"/>
		<rect x="572" y="34" width="112" height="59" fill="#fddbc7" stroke="#fddbc7" stroke-width="0" opacity="1"/>
		<rect x="572" y="9" width="112" height="84" fill="none" stroke="#d6604d" stroke-width="2" opacity="1"/>
		<line x1="572" y1="34" x2="684" y2="34" stroke="#d6604d" stroke-width="1"/>
	</g>
	<text x="604" y="26.75" fill="#000" font-family="Verdana" font-size="12">Episode</text>
	<text x="577" y="51.8" fill="#000" font-family="Verdana" font-size="12">code_episode</text>
	<line x1="577" y1="54" x2="660" y2="54" stroke="#000" stroke-width="1"/>
	<text x="577" y="68.8" fill="#000" font-family="Verdana" font-size="12">title_episode</text>
	<text x="577" y="85.8" fill="#000" font-family="Verdana" font-size="12">number_episode</text>
</g>

<!-- Entity Season -->
<g class="page_0_VBgUPXxb diagram_page" visibility="visible">
	<g>
		<rect x="810" y="17" width="90" height="25" fill="#f4a582" stroke="#f4a582" stroke-width="0" opacity="1"/>
		<rect x="810" y="42" width="90" height="43" fill="#fddbc7" stroke="#fddbc7" stroke-width="0" opacity="1"/>
		<rect x="810" y="17" width="90" height="68" fill="none" stroke="#d6604d" stroke-width="2" opacity="1"/>
		<line x1="810" y1="42" x2="900" y2="42" stroke="#d6604d" stroke-width="1"/>
	</g>
	<text x="833" y="34.75" fill="#000" font-family="Verdana" font-size="12">Season</text>
	<text x="815" y="59.8" fill="#000" font-family="Verdana" font-size="12">code_season</text>
	<line x1="815" y1="62" x2="894" y2="62" stroke="#000" stroke-width="1"/>
	<text x="815" y="76.8" fill="#000" font-family="Verdana" font-size="12">title_season</text>
</g>

<!-- Entity Question -->
<g class="page_0_VBgUPXxb diagram_page" visibility="visible">
	<g>
		<rect x="9" y="76" width="144" height="25" fill="#f4a582" stroke="#f4a582" stroke-width="0" opacity="1"/>
		<rect x="9" y="101" width="144" height="127" fill="#fddbc7" stroke="#fddbc7" stroke-width="0" opacity="1"/>
		<rect x="9" y="76" width="144" height="152" fill="none" stroke="#d6604d" stroke-width="2" opacity="1"/>
		<line x1="9" y1="101" x2="153" y2="101" stroke="#d6604d" stroke-width="1"/>
	</g>
	<text x="54" y="93.75" fill="#000" font-family="Verdana" font-size="12">Question</text>
	<text x="14" y="118.8" fill="#000" font-family="Verdana" font-size="12">code_question</text>
	<line x1="14" y1="121" x2="102" y2="121" stroke="#000" stroke-width="1"/>
	<text x="14" y="135.8" fill="#000" font-family="Verdana" font-size="12">title_question</text>
	<text x="14" y="152.8" fill="#000" font-family="Verdana" font-size="12">answer1_question</text>
	<text x="14" y="169.8" fill="#000" font-family="Verdana" font-size="12">answer2_question</text>
	<text x="14" y="186.8" fill="#000" font-family="Verdana" font-size="12">answer3_question</text>
	<text x="14" y="203.8" fill="#000" font-family="Verdana" font-size="12">answer4_question</text>
	<text x="14" y="220.8" fill="#000" font-family="Verdana" font-size="12">goodAnswer_question</text>
</g>

<!-- Entity Quizz -->
<g class="page_0_VBgUPXxb diagram_page" visibility="visible">
	<g>
		<rect x="146" y="253" width="78" height="25" fill="#f4a582" stroke="#f4a582" stroke-width="0" opacity="1"/>
		<rect x="146" y="278" width="78" height="43" fill="#fddbc7" stroke="#fddbc7" stroke-width="0" opacity="1"/>
		<rect x="146" y="253" width="78" height="68" fill="none" stroke="#d6604d" stroke-width="2" opacity="1"/>
		<line x1="146" y1="278" x2="224" y2="278" stroke="#d6604d" stroke-width="1"/>
	</g>
	<text x="168" y="270.75" fill="#000" font-family="Verdana" font-size="12">Quizz</text>
	<text x="151" y="295.8" fill="#000" font-family="Verdana" font-size="12">code_quizz</text>
	<line x1="151" y1="298" x2="219" y2="298" stroke="#000" stroke-width="1"/>
	<text x="151" y="312.8" fill="#000" font-family="Verdana" font-size="12">title_quizz</text>
</g>

<!-- Entity User -->
<g class="page_0_VBgUPXxb diagram_page" visibility="visible">
	<g>
		<rect x="336" y="236" width="102" height="25" fill="#f4a582" stroke="#f4a582" stroke-width="0" opacity="1"/>
		<rect x="336" y="261" width="102" height="77" fill="#fddbc7" stroke="#fddbc7" stroke-width="0" opacity="1"/>
		<rect x="336" y="236" width="102" height="102" fill="none" stroke="#d6604d" stroke-width="2" opacity="1"/>
		<line x1="336" y1="261" x2="438" y2="261" stroke="#d6604d" stroke-width="1"/>
	</g>
	<text x="373" y="253.75" fill="#000" font-family="Verdana" font-size="12">User</text>
	<text x="341" y="278.8" fill="#000" font-family="Verdana" font-size="12">code_user</text>
	<line x1="341" y1="281" x2="404" y2="281" stroke="#000" stroke-width="1"/>
	<text x="341" y="295.8" fill="#000" font-family="Verdana" font-size="12">email_user</text>
	<text x="341" y="312.8" fill="#000" font-family="Verdana" font-size="12">password_user</text>
	<text x="341" y="329.8" fill="#000" font-family="Verdana" font-size="12">role_user</text>
</g>

<!-- Entity Quote -->
<g class="page_0_VBgUPXxb diagram_page" visibility="visible">
	<g>
		<rect x="574" y="236" width="108" height="25" fill="#f4a582" stroke="#f4a582" stroke-width="0" opacity="1"/>
		<rect x="574" y="261" width="108" height="77" fill="#fddbc7" stroke="#fddbc7" stroke-width="0" opacity="1"/>
		<rect x="574" y="236" width="108" height="102" fill="none" stroke="#d6604d" stroke-width="2" opacity="1"/>
		<line x1="574" y1="261" x2="682" y2="261" stroke="#d6604d" stroke-width="1"/>
	</g>
	<text x="610" y="253.75" fill="#000" font-family="Verdana" font-size="12">Quote</text>
	<text x="579" y="278.8" fill="#000" font-family="Verdana" font-size="12">code_quote</text>
	<line x1="579" y1="281" x2="650" y2="281" stroke="#000" stroke-width="1"/>
	<text x="579" y="295.8" fill="#000" font-family="Verdana" font-size="12">text_quote</text>
	<text x="579" y="312.8" fill="#000" font-family="Verdana" font-size="12">rating_quote</text>
	<text x="579" y="329.8" fill="#000" font-family="Verdana" font-size="12">validated_quote</text>
</g>

<!-- Entity Avatar -->
<g class="page_0_VBgUPXxb diagram_page" visibility="visible">
	<g>
		<rect x="234" y="363" width="92" height="25" fill="#f4a582" stroke="#f4a582" stroke-width="0" opacity="1"/>
		<rect x="234" y="388" width="92" height="59" fill="#fddbc7" stroke="#fddbc7" stroke-width="0" opacity="1"/>
		<rect x="234" y="363" width="92" height="84" fill="none" stroke="#d6604d" stroke-width="2" opacity="1"/>
		<line x1="234" y1="388" x2="326" y2="388" stroke="#d6604d" stroke-width="1"/>
	</g>
	<text x="260" y="380.75" fill="#000" font-family="Verdana" font-size="12">Avatar</text>
	<text x="239" y="405.8" fill="#000" font-family="Verdana" font-size="12">code_avatar</text>
	<line x1="239" y1="408" x2="314" y2="408" stroke="#000" stroke-width="1"/>
	<text x="239" y="422.8" fill="#000" font-family="Verdana" font-size="12">name_avatar</text>
	<text x="239" y="439.8" fill="#000" font-family="Verdana" font-size="12">icon_avatar</text>
</g>

<!-- Entity Personage -->
<g class="page_0_VBgUPXxb diagram_page" visibility="visible">
	<g>
		<rect x="533" y="455" width="190" height="25" fill="#f4a582" stroke="#f4a582" stroke-width="0" opacity="1"/>
		<rect x="533" y="480" width="190" height="93" fill="#fddbc7" stroke="#fddbc7" stroke-width="0" opacity="1"/>
		<rect x="533" y="455" width="190" height="118" fill="none" stroke="#d6604d" stroke-width="2" opacity="1"/>
		<line x1="533" y1="480" x2="723" y2="480" stroke="#d6604d" stroke-width="1"/>
	</g>
	<text x="597" y="472.75" fill="#000" font-family="Verdana" font-size="12">Personage</text>
	<text x="538" y="497.8" fill="#000" font-family="Verdana" font-size="12">code_personage</text>
	<line x1="538" y1="500" x2="638" y2="500" stroke="#000" stroke-width="1"/>
	<text x="538" y="514.8" fill="#000" font-family="Verdana" font-size="12">name_personage</text>
	<text x="538" y="531.8" fill="#000" font-family="Verdana" font-size="12">picture_personage</text>
	<text x="538" y="548.8" fill="#000" font-family="Verdana" font-size="12">description_personage</text>
	<text x="538" y="565.8" fill="#000" font-family="Verdana" font-size="12">descriptionPicture_personage</text>
</g>

<!-- Entity Actor -->
<g class="page_0_VBgUPXxb diagram_page" visibility="visible">
	<g>
		<rect x="550" y="673" width="156" height="25" fill="#f4a582" stroke="#f4a582" stroke-width="0" opacity="1"/>
		<rect x="550" y="698" width="156" height="93" fill="#fddbc7" stroke="#fddbc7" stroke-width="0" opacity="1"/>
		<rect x="550" y="673" width="156" height="118" fill="none" stroke="#d6604d" stroke-width="2" opacity="1"/>
		<line x1="550" y1="698" x2="706" y2="698" stroke="#d6604d" stroke-width="1"/>
	</g>
	<text x="612" y="690.75" fill="#000" font-family="Verdana" font-size="12">Actor</text>
	<text x="555" y="715.8" fill="#000" font-family="Verdana" font-size="12">code_actor</text>
	<line x1="555" y1="718" x2="622" y2="718" stroke="#000" stroke-width="1"/>
	<text x="555" y="732.8" fill="#000" font-family="Verdana" font-size="12">name_actor</text>
	<text x="555" y="749.8" fill="#000" font-family="Verdana" font-size="12">picture_actor</text>
	<text x="555" y="766.8" fill="#000" font-family="Verdana" font-size="12">description_actor</text>
	<text x="555" y="783.8" fill="#000" font-family="Verdana" font-size="12">descriptionPicture_actor</text>
</g>
</svg>